<svg id="Capa_1" enable-background="new 0 0 512 512" height="512" viewBox="0 0 512 512" width="512" xmlns="http://www.w3.org/2000/svg"><g><path d="m479.5 92.5h-447c-17.92 0-32.5 14.58-32.5 32.5v213.286c0 4.142 3.358 7.5 7.5 7.5s7.5-3.358 7.5-7.5v-213.286c0-9.649 7.851-17.5 17.5-17.5h447c9.649 0 17.5 7.851 17.5 17.5v262c0 9.649-7.851 17.5-17.5 17.5h-447c-9.649 0-17.5-7.851-17.5-17.5v-13.714c0-4.142-3.358-7.5-7.5-7.5s-7.5 3.358-7.5 7.5v13.714c0 17.92 14.58 32.5 32.5 32.5h447c17.921 0 32.5-14.58 32.5-32.5v-262c0-17.92-14.579-32.5-32.5-32.5z"/><path d="m157.336 347.966c50.71 0 91.966-41.256 91.966-91.966s-41.256-91.966-91.966-91.966-91.966 41.256-91.966 91.966 41.256 91.966 91.966 91.966zm0-168.932c42.439 0 76.966 34.527 76.966 76.966s-34.527 76.966-76.966 76.966-76.966-34.527-76.966-76.966 34.527-76.966 76.966-76.966z"/><path d="m124.33 277.417c11.855 0 21.5-9.645 21.5-21.5s-9.645-21.5-21.5-21.5-21.5 9.645-21.5 21.5 9.645 21.5 21.5 21.5zm0-28c3.584 0 6.5 2.916 6.5 6.5s-2.916 6.5-6.5 6.5-6.5-2.916-6.5-6.5 2.916-6.5 6.5-6.5z"/><path d="m190.343 277.417c11.855 0 21.5-9.645 21.5-21.5s-9.645-21.5-21.5-21.5-21.5 9.645-21.5 21.5 9.645 21.5 21.5 21.5zm0-28c3.584 0 6.5 2.916 6.5 6.5s-2.916 6.5-6.5 6.5-6.5-2.916-6.5-6.5 2.916-6.5 6.5-6.5z"/><path d="m354.663 347.966c50.711 0 91.967-41.256 91.967-91.965.001-14.913-3.652-29.726-10.565-42.838-1.932-3.663-6.469-5.069-10.133-3.136-3.664 1.932-5.068 6.468-3.137 10.132 5.781 10.963 8.836 23.357 8.835 35.841 0 42.439-34.527 76.966-76.967 76.966s-76.966-34.527-76.966-76.966 34.526-76.966 76.966-76.966c17.613 0 34.186 5.789 47.928 16.739 3.239 2.582 7.958 2.048 10.539-1.191 2.582-3.239 2.048-7.958-1.191-10.54-16.425-13.09-36.23-20.009-57.275-20.009-50.71 0-91.966 41.256-91.966 91.966s41.255 91.967 91.965 91.967z"/><path d="m300.156 255.917c0 11.855 9.645 21.5 21.5 21.5s21.5-9.645 21.5-21.5-9.645-21.5-21.5-21.5-21.5 9.646-21.5 21.5zm28 0c0 3.584-2.916 6.5-6.5 6.5s-6.5-2.916-6.5-6.5 2.916-6.5 6.5-6.5 6.5 2.916 6.5 6.5z"/><path d="m387.67 234.417c-11.855 0-21.5 9.645-21.5 21.5s9.645 21.5 21.5 21.5 21.5-9.645 21.5-21.5-9.645-21.5-21.5-21.5zm0 28c-3.584 0-6.5-2.916-6.5-6.5s2.916-6.5 6.5-6.5 6.5 2.916 6.5 6.5-2.916 6.5-6.5 6.5z"/><path d="m457.5 382.5c9.649 0 17.5-7.851 17.5-17.5v-218c0-9.649-7.851-17.5-17.5-17.5h-403c-9.649 0-17.5 7.851-17.5 17.5v218c0 9.649 7.851 17.5 17.5 17.5zm-405.5-17.5v-218c0-1.378 1.122-2.5 2.5-2.5h403c1.379 0 2.5 1.122 2.5 2.5v218c0 1.378-1.121 2.5-2.5 2.5h-403c-1.378 0-2.5-1.122-2.5-2.5z"/></g></svg>