<svg id="Layer_1" enable-background="new 0 0 512 512" height="512" viewBox="0 0 512 512" width="512" xmlns="http://www.w3.org/2000/svg"><g><path d="m4.345 14.305c34.127 15.837 69.951 29.527 107.105 40.949l-6.127 12.464c-9.366-3.167-17.481-2.758-24.192 1.238-8.545 5.088-12.041 14.481-13.468 21.053-13.706 1.231-24.663 9.424-31.997 24.343-1.828 3.717-.295 8.212 3.422 10.039 3.718 1.83 8.212.296 10.039-3.422 5.82-11.838 16.016-23.704 43.433-10.269 11.567 5.668 18.705 12.27 21.217 19.623 2.069 6.057 1.156 12.904-2.791 20.934-10.791 21.952-39.715 42.928-55.649 35.118-8.737-4.281-13.925-18.404-13.217-35.981.167-4.139-3.054-7.629-7.192-7.796-4.149-.157-7.629 3.054-7.796 7.192-.976 24.235 7.101 42.947 21.604 50.054 4.34 2.126 9.121 3.18 14.21 3.18 9.018 0 19.006-3.307 29.218-9.807 13.584-8.646 25.653-21.859 32.281-35.344 5.713-11.621 6.899-22.522 3.525-32.4-.923-2.703-2.184-5.305-3.778-7.802 4.33-5.154 9.608-13.652 8.407-23.5-.944-7.742-5.581-14.398-13.809-19.854l7.236-14.72c20.415 5.897 41.211 11.117 62.328 15.64 23.505 5.035 47.431 9.216 71.638 12.527l-2.772 13.616c-9.863-.698-17.611 1.749-23.092 7.313-6.975 7.08-7.979 17.047-7.696 23.766-12.947 4.654-21.471 15.35-24.787 31.638-2.997 14.723-1.52 32.547 3.953 47.677 6.437 17.796 17.216 29.065 30.35 31.73 2 .406 4.024.606 6.07.606 11.389 0 23.348-6.228 34.267-17.989 10.953-11.797 19.281-27.629 22.278-42.351 3.053-14.998.282-27.322-8.234-36.627-.694-.758-1.427-1.493-2.196-2.206 2.882-6.079 5.833-15.627 2.183-24.847-2.873-7.256-9.048-12.527-18.397-15.728l2.987-14.675c24.412 2.965 49.078 5.048 73.859 6.232 17.354.829 33.608 1.167 48.588 1.167 4.503 0 8.891-.031 13.159-.088l.993 14.506c-9.692 1.942-16.51 6.355-20.315 13.172-4.834 8.657-3.169 18.509-1.116 24.914-.857.605-1.681 1.237-2.469 1.898-9.671 8.102-14.045 19.953-12.999 35.221.282 4.132 3.846 7.258 7.995 6.97 4.132-.283 7.253-3.862 6.97-7.995-.709-10.358 1.799-17.783 7.667-22.699 5.347-4.479 13.68-7.134 24.768-7.891 30.478-2.077 35.406 12.75 36.306 25.901.834 12.171-2.446 27.037-8.558 38.796-6.135 11.8-14.147 18.875-21.984 19.41-9.897.672-21.573-9.188-29.805-25.123-1.9-3.681-6.426-5.122-10.105-3.221-3.68 1.901-5.122 6.426-3.221 10.105 10.849 20.998 26.463 33.273 42.122 33.273.677 0 1.354-.023 2.031-.069 13.37-.913 25.542-10.663 34.271-27.456 7.423-14.278 11.241-31.751 10.215-46.74-1.135-16.582-8.175-28.308-20.391-34.628 1.168-6.623 1.489-16.635-4.491-24.571-4.699-6.237-12.053-9.684-21.925-10.29l-.945-13.801c48.684-1.416 78.385-6.066 80.156-6.35 4.09-.655 6.875-4.501 6.22-8.592-.654-4.09-4.5-6.875-8.591-6.22-.425.068-30.202 4.73-78.813 6.143l-.729-10.655c-.282-4.133-3.864-7.256-7.995-6.97-4.132.283-7.253 3.862-6.97 7.995l.681 9.948c-18.027.239-38.171-.002-60.002-1.044-21.341-1.019-45.427-2.881-71.562-6.048l1.892-9.295c.826-4.059-1.795-8.019-5.853-8.845-4.06-.83-8.019 1.794-8.846 5.853l-2.11 10.364c-39.933-5.458-84.1-13.99-130.22-27.118l3.463-7.044c1.828-3.717.295-8.212-3.422-10.039-3.716-1.828-8.211-.295-10.039 3.422l-4.605 9.368c-35.188-10.673-71.359-24.073-107.522-40.855-3.758-1.742-8.217-.112-9.96 3.646-1.744 3.757-.112 8.217 3.646 9.961zm415.625 111.199c.005 0 .01-.001.014-.001.003 0 .005 0 .008-.001 5.714-.385 13.188.038 16.406 4.273 2.165 2.849 2.377 7.218 1.97 10.976-5.252-.838-11.054-1.052-17.38-.618-6.326.432-12.049 1.419-17.142 2.951-.913-3.663-1.293-8.011.459-11.121 2.61-4.629 9.957-6.068 15.665-6.459zm-140.702 31.77c5.167 5.645 6.672 13.334 4.601 23.507-4.877 23.961-27.555 51.545-44.934 48.026-7.697-1.562-14.705-9.628-19.227-22.132-4.506-12.46-5.794-27.628-3.36-39.583 2.195-10.785 7.333-22.356 26.378-22.356 3.771 0 8.09.454 13.036 1.458 10.889 2.209 18.799 5.937 23.506 11.08zm-17.596-40.153c.002 0 .003.001.005.001 5.607 1.138 12.707 3.53 14.684 8.464 1.328 3.315.376 7.577-1.014 11.089-4.847-2.19-10.39-3.922-16.604-5.183-6.213-1.261-11.991-1.813-17.307-1.673.092-3.778.88-8.081 3.402-10.621 3.751-3.777 11.223-3.215 16.834-2.077zm-143.965-21.163c.447 3.545-1.557 7.431-3.794 10.481-4.132-3.342-9.054-6.416-14.753-9.208-5.689-2.787-11.138-4.78-16.314-5.988 1.048-3.632 2.902-7.596 5.986-9.416 4.591-2.708 11.68-.274 16.819 2.244 5.133 2.515 11.392 6.619 12.056 11.887z"/><path d="m511.301 262.104c-1.742-3.757-6.203-5.39-9.96-3.646-36.179 16.789-72.359 30.185-107.526 40.853l-4.603-9.363c-1.826-3.717-6.321-5.251-10.039-3.422-3.718 1.827-5.249 6.322-3.422 10.039l3.46 7.038c-46.226 13.157-90.421 21.681-130.218 27.124l-2.11-10.364c-.826-4.059-4.785-6.682-8.846-5.853-4.059.826-6.68 4.786-5.853 8.845l1.892 9.296c-24.294 2.946-46.731 4.753-66.723 5.804-4.136.218-7.313 3.747-7.096 7.884.21 4.002 3.522 7.106 7.483 7.106.133 0 .266-.003.4-.01 23.128-1.216 46.15-3.218 68.947-5.986l2.987 14.676c-9.348 3.201-15.522 8.472-18.396 15.728-3.651 9.22-.7 18.768 2.182 24.847-.769.712-1.502 1.447-2.196 2.205-8.518 9.305-11.288 21.628-8.235 36.627 2.997 14.722 11.325 30.555 22.278 42.351 10.92 11.762 22.879 17.989 34.268 17.989 2.045 0 4.071-.201 6.07-.606 15.723-3.19 28.243-19.107 33.493-42.578.904-4.042-1.64-8.052-5.682-8.956s-8.052 1.64-8.956 5.682c-3.861 17.266-12.229 29.203-21.837 31.153-17.402 3.534-40.058-24.065-44.935-48.026-2.071-10.173-.566-17.862 4.601-23.507 4.708-5.143 12.617-8.871 23.508-11.081 29.93-6.073 36.783 7.979 39.414 20.899.826 4.059 4.785 6.681 8.846 5.853 4.059-.826 6.68-4.787 5.854-8.845-3.316-16.288-11.841-26.984-24.788-31.638.283-6.719-.72-16.686-7.695-23.766-5.482-5.564-13.229-8.012-23.092-7.314l-2.772-13.617c25.261-3.455 50.214-7.857 74.696-13.186 20.065-4.368 39.84-9.367 59.271-14.979l7.236 14.719c-8.228 5.456-12.865 12.112-13.809 19.854-1.202 9.848 4.076 18.346 8.406 23.5-1.594 2.497-2.855 5.099-3.778 7.803-3.373 9.878-2.187 20.779 3.526 32.399 6.629 13.486 18.697 26.698 32.281 35.344 10.213 6.5 20.199 9.807 29.219 9.806 5.089 0 9.871-1.053 14.21-3.179 8.172-4.004 14.412-11.743 18.045-22.378 6.288-18.412 4.243-44.366-4.974-63.116-7.334-14.92-18.291-23.113-31.996-24.345-1.428-6.572-4.924-15.964-13.467-21.052-6.714-3.997-14.829-4.406-24.193-1.239l-6.127-12.463c37.154-11.423 72.981-25.114 107.104-40.949 3.759-1.744 5.391-6.203 3.647-9.96zm-244.139 114.854c2.523 2.541 3.311 6.846 3.404 10.62-5.316-.139-11.095.412-17.308 1.673-6.214 1.261-11.757 2.993-16.604 5.183-1.39-3.512-2.342-7.774-1.014-11.089 1.977-4.934 9.076-7.326 14.684-8.464.002 0 .003-.001.005-.001 5.61-1.136 13.081-1.698 16.833 2.078zm173.477-14.454c12.211 0 18.251 8.12 22.235 16.225 7.481 15.219 9.265 36.941 4.24 51.65-1.616 4.732-4.741 10.959-10.449 13.757-15.928 7.805-44.857-13.166-55.649-35.118-3.947-8.029-4.86-14.876-2.792-20.934 2.512-7.353 9.65-13.956 21.217-19.623 8.645-4.237 15.575-5.957 21.198-5.957zm-34.289-20.674c5.14-2.518 12.228-4.952 16.818-2.244 3.086 1.821 4.941 5.787 5.988 9.415-5.177 1.208-10.626 3.201-16.315 5.989-5.7 2.793-10.622 5.867-14.754 9.208-2.237-3.049-4.24-6.936-3.793-10.481.664-5.267 6.923-9.371 12.056-11.887z"/><path d="m124.392 409.251c-.789-.661-1.612-1.293-2.469-1.898 2.054-6.405 3.718-16.256-1.115-24.914-3.806-6.816-10.623-11.23-20.316-13.172l.994-14.519c4.342.059 8.809.09 13.395.09 4.951 0 10.047-.037 15.271-.116 4.142-.063 7.448-3.471 7.386-7.612-.063-4.142-3.489-7.448-7.612-7.386-9.591.145-18.745.141-27.413.027l.682-9.955c.283-4.133-2.837-7.712-6.97-7.995-4.145-.29-7.712 2.837-7.995 6.97l-.73 10.663c-48.571-1.416-78.44-6.091-78.814-6.151-4.093-.653-7.935 2.132-8.589 6.222-.654 4.09 2.13 7.935 6.22 8.59 1.559.25 31.249 4.911 80.157 6.335l-.946 13.816c-9.867.606-17.225 4.053-21.924 10.29-5.982 7.939-5.659 17.953-4.491 24.576-12.217 6.318-19.257 18.041-20.393 34.623-1.027 14.989 2.792 32.462 10.215 46.741 8.73 16.793 20.901 26.543 34.272 27.456.687.047 1.374.07 2.06.07 12.678 0 25.258-7.957 35.633-22.612 9.3-13.136 15.465-29.927 16.491-44.916 1.045-15.27-3.328-27.12-12.999-35.223zm-48.789-21.716c3.219-4.235 10.698-4.66 16.405-4.273.003 0 .005 0 .008.001.005 0 .009.001.014.001 5.709.391 13.055 1.83 15.665 6.46 1.754 3.112 1.372 7.462.461 11.121-5.094-1.533-10.817-2.52-17.143-2.952-6.325-.431-12.127-.217-17.379.622-.409-3.758-.197-8.13 1.969-10.98zm46.822 55.913c-1.638 23.92-19.77 53.554-37.168 53.552-.343 0-.688-.011-1.03-.035-7.837-.535-15.85-7.61-21.984-19.41-6.113-11.759-9.393-26.624-8.559-38.796.843-12.313 5.227-26.097 30.787-26.097 1.74 0 3.579.064 5.52.196 11.088.757 19.421 3.412 24.768 7.891 5.868 4.916 8.376 12.341 7.666 22.699z"/></g></svg>