<?xml version="1.0"?>
<svg xmlns="http://www.w3.org/2000/svg" viewBox="0 0 128 128" width="512" height="512"><title>TEAPOT</title><g id="Layer_3" data-name="Layer 3"><path d="M83.06,30.707H80.348a4.76,4.76,0,0,1-4.54-3.35,5.666,5.666,0,0,0,3.7-5.306v-.5a5.663,5.663,0,0,0-5.656-5.656H63.16A5.663,5.663,0,0,0,57.5,21.55v.5a5.666,5.666,0,0,0,3.7,5.306,4.76,4.76,0,0,1-4.54,3.35H53.948A10.6,10.6,0,0,0,43.365,41.29a1.75,1.75,0,0,0,1.75,1.75H91.893a1.75,1.75,0,0,0,1.75-1.75A10.6,10.6,0,0,0,83.06,30.707Z" style="fill:#ef5350"/><path d="M43.365,41.29a1.75,1.75,0,0,0,1.75,1.75H91.893a1.75,1.75,0,0,0,1.75-1.75,10.533,10.533,0,0,0-2.44-6.75H45.8A10.533,10.533,0,0,0,43.365,41.29Z" style="fill:#e53935"/><path d="M121.434,54.546h0a19.754,19.754,0,0,0-15.364-4.872A19.238,19.238,0,0,0,98.9,51.981l-.929-7.328a5.745,5.745,0,0,0-5.715-5.114h-47.5a5.739,5.739,0,0,0-5.712,5.087L35.549,72.174l-4.02-6.443a28.052,28.052,0,0,0-14.582-11.66C12.567,52.56,8.36,53,5.108,55.32S0,61.632,0,66.288a1.75,1.75,0,0,0,1.75,1.75h6a12.454,12.454,0,0,1,10.629,5.9l14.083,22.58L29.92,116.563a5.75,5.75,0,0,0,5.715,6.386h65.737a5.75,5.75,0,0,0,5.712-6.413l-1.372-10.815a82.6,82.6,0,0,0,19.38-25.784L126,78.03a20.566,20.566,0,0,0,2-8.813A19.7,19.7,0,0,0,121.434,54.546Zm-7.663,8.575a8.188,8.188,0,0,1,2.729,6.1,8.983,8.983,0,0,1-.874,3.854h0l-.911,1.907a70.061,70.061,0,0,1-10.833,16.3L100.709,66.26a8.17,8.17,0,0,1,13.062-3.139Z" style="fill:#fec13b"/><path d="M121.434,54.546h0a19.754,19.754,0,0,0-15.364-4.872A19.238,19.238,0,0,0,98.9,51.981l-.929-7.328a5.745,5.745,0,0,0-5.715-5.114h-7.5a5.745,5.745,0,0,1,5.715,5.114l.929,7.328,6.813,53.739,1.372,10.815a5.75,5.75,0,0,1-5.712,6.413h7.5a5.75,5.75,0,0,0,5.712-6.413l-1.372-10.815a82.6,82.6,0,0,0,19.38-25.784L126,78.03a20.566,20.566,0,0,0,2-8.813A19.7,19.7,0,0,0,121.434,54.546Zm-5.808,18.525h0l-.911,1.907a70.061,70.061,0,0,1-10.833,16.3L100.709,66.26A8.172,8.172,0,0,1,116.5,69.217,8.983,8.983,0,0,1,115.626,73.071Z" style="fill:#ffa000"/><path d="M69.381,57.781a1.753,1.753,0,0,0-1.754,0,24.167,24.167,0,0,0,0,41.86,1.752,1.752,0,0,0,1.754,0,24.168,24.168,0,0,0,0-41.86Z" style="fill:#4db6ac"/><path d="M69.381,57.781a1.753,1.753,0,0,0-1.754,0c-.32.185-.627.386-.936.584a24.14,24.14,0,0,1,0,40.692c.309.2.616.4.936.584a1.752,1.752,0,0,0,1.754,0,24.168,24.168,0,0,0,0-41.86Z" style="fill:#26a69a"/><path d="M74.178,76.344a1.75,1.75,0,0,0-2.472.129l-1.452,1.612v-5.5a1.75,1.75,0,1,0-3.5,0v5.505L65.3,76.473a1.75,1.75,0,1,0-2.6,2.343l4.054,4.5v23.807a1.75,1.75,0,1,0,3.5,0V83.316l4.054-4.5A1.749,1.749,0,0,0,74.178,76.344Z" style="fill:#00695c"/><path d="M14,43.04a1.75,1.75,0,0,1-1.75-1.75,10.5,10.5,0,0,1,2.313-6.749,7.532,7.532,0,0,0,0-9.5,10.5,10.5,0,0,1-2.313-6.749,10.49,10.49,0,0,1,2.313-6.746A7.145,7.145,0,0,0,16.25,6.8a1.75,1.75,0,0,1,3.5,0,10.487,10.487,0,0,1-2.313,6.745,7.146,7.146,0,0,0-1.687,4.746,7.156,7.156,0,0,0,1.687,4.75,10.5,10.5,0,0,1,2.313,6.749,10.5,10.5,0,0,1-2.313,6.749,7.156,7.156,0,0,0-1.687,4.75A1.75,1.75,0,0,1,14,43.04Z" style="fill:#ba68c8"/><path d="M1.75,43.04A1.75,1.75,0,0,1,0,41.29a10.5,10.5,0,0,1,2.313-6.749A7.156,7.156,0,0,0,4,29.791a7.157,7.157,0,0,0-1.687-4.75A10.5,10.5,0,0,1,0,18.292a10.49,10.49,0,0,1,2.313-6.746A7.145,7.145,0,0,0,4,6.8a1.75,1.75,0,0,1,3.5,0,10.487,10.487,0,0,1-2.313,6.745A7.146,7.146,0,0,0,3.5,18.292a7.156,7.156,0,0,0,1.687,4.75A10.5,10.5,0,0,1,7.5,29.791,10.5,10.5,0,0,1,5.187,36.54,7.156,7.156,0,0,0,3.5,41.29,1.75,1.75,0,0,1,1.75,43.04Z" style="fill:#ba68c8"/><path d="M32.462,96.515l-.836,6.594h0l3.923-30.936-4.019-6.442c-.054-.086-.117-.165-.172-.251L28.274,89.8Z" style="fill:#ffa000"/><path d="M106.953,57.624a11.673,11.673,0,0,0-9.7,7.882,1.749,1.749,0,0,0-.077.777l3.7,29.142a1.75,1.75,0,0,0,2.984,1.006,73.831,73.831,0,0,0,14.01-19.943l.911-1.907a12.523,12.523,0,0,0,1.216-5.364,11.692,11.692,0,0,0-3.9-8.706A11.574,11.574,0,0,0,106.953,57.624Zm8.661,15.448h0l-.911,1.907a70.061,70.061,0,0,1-10.833,16.3L100.7,66.261a8.273,8.273,0,0,1,6.649-5.16,8.175,8.175,0,0,1,9.142,8.116A8.983,8.983,0,0,1,115.614,73.071Z"/><path d="M120.276,55.755a1.749,1.749,0,0,0-.1,2.473,16.136,16.136,0,0,1,4.308,10.989,17.034,17.034,0,0,1-1.656,7.3l-.91,1.906A79.063,79.063,0,0,1,102.7,103.7a1.751,1.751,0,0,0-.586,1.539l1.485,11.708a2.25,2.25,0,0,1-2.236,2.5H64.833a1.75,1.75,0,0,0,0,3.5H101.36a5.75,5.75,0,0,0,5.712-6.413L105.7,105.72a82.6,82.6,0,0,0,19.38-25.784l.91-1.906a20.566,20.566,0,0,0,2-8.813,19.621,19.621,0,0,0-5.239-13.366A1.75,1.75,0,0,0,120.276,55.755Z"/><path d="M1.738,68.038h6a12.454,12.454,0,0,1,10.629,5.9L32.45,96.515l-2.542,20.047a5.75,5.75,0,0,0,5.715,6.386H45.1a1.75,1.75,0,1,0,0-3.5H35.623a2.25,2.25,0,0,1-2.239-2.472L36.006,96.3a1.75,1.75,0,0,0-.312-1.237L21.337,72.083a15.935,15.935,0,0,0-13.6-7.545H3.6a8.974,8.974,0,0,1,3.529-6.367c2.306-1.644,5.383-1.924,8.665-.791a24.544,24.544,0,0,1,12.756,10.2L35.17,78.2a1.763,1.763,0,0,0,3.221-.706L42.5,45.04a2.247,2.247,0,0,1,2.235-2h47.5a2.254,2.254,0,0,1,2.238,2.028l1.284,10.125a1.75,1.75,0,0,0,2.8,1.171,15.979,15.979,0,0,1,7.886-3.212,16.343,16.343,0,0,1,8.216,1.2,1.75,1.75,0,0,0,1.371-3.221,19.858,19.858,0,0,0-9.979-1.455,19.241,19.241,0,0,0-7.171,2.307l-.93-7.327a5.732,5.732,0,0,0-4.46-4.963,10.591,10.591,0,0,0-10.45-8.984H80.335a4.76,4.76,0,0,1-4.54-3.35,5.666,5.666,0,0,0,3.7-5.306v-.5a5.663,5.663,0,0,0-5.656-5.656H63.147a5.663,5.663,0,0,0-5.656,5.656v.5a5.666,5.666,0,0,0,3.7,5.306,4.76,4.76,0,0,1-4.54,3.35H53.937a10.591,10.591,0,0,0-10.45,8.984,5.719,5.719,0,0,0-4.457,4.936L35.537,72.174l-4.02-6.443a28.052,28.052,0,0,0-14.582-11.66C12.555,52.56,8.35,53,5.1,55.32S-.012,61.632-.012,66.288A1.75,1.75,0,0,0,1.738,68.038Zm52.2-33.831h2.711a8.26,8.26,0,0,0,8.25-8.25,1.75,1.75,0,0,0-1.75-1.75,2.159,2.159,0,0,1-2.156-2.156v-.5a2.159,2.159,0,0,1,2.156-2.156H73.835a2.159,2.159,0,0,1,2.156,2.156v.5a2.159,2.159,0,0,1-2.156,2.156,1.75,1.75,0,0,0-1.75,1.75,8.26,8.26,0,0,0,8.25,8.25h2.712a7.1,7.1,0,0,1,6.865,5.333H47.071A7.1,7.1,0,0,1,53.937,34.207Z"/><path d="M57.28,122.948a1.75,1.75,0,1,0,0-3.5H52.656a1.75,1.75,0,1,0,0,3.5Z"/><path d="M68.491,108.873a1.75,1.75,0,0,0,1.75-1.75V99.1a24.152,24.152,0,0,0-.874-41.314,1.751,1.751,0,0,0-1.753,0A24.153,24.153,0,0,0,66.741,99.1v8.027A1.75,1.75,0,0,0,68.491,108.873ZM59.03,78.711a20.752,20.752,0,0,1,9.461-17.364A20.648,20.648,0,0,1,70.241,94.8V83.316l4.054-4.5a1.75,1.75,0,1,0-2.6-2.343l-1.454,1.614V72.582a1.75,1.75,0,0,0-3.5,0v5.5l-1.452-1.612a1.75,1.75,0,0,0-2.6,2.342l4.054,4.5V94.8A20.743,20.743,0,0,1,59.03,78.711Z"/><path d="M12.238,41.29a1.75,1.75,0,0,0,3.5,0,7.156,7.156,0,0,1,1.687-4.75,10.5,10.5,0,0,0,2.313-6.749,10.5,10.5,0,0,0-2.313-6.749,7.156,7.156,0,0,1-1.687-4.75,7.146,7.146,0,0,1,1.687-4.746A10.487,10.487,0,0,0,19.738,6.8a1.75,1.75,0,0,0-3.5,0,7.145,7.145,0,0,1-1.687,4.745,10.49,10.49,0,0,0-2.313,6.746,10.5,10.5,0,0,0,2.313,6.749,7.532,7.532,0,0,1,0,9.5A10.5,10.5,0,0,0,12.238,41.29Z"/><path d="M-.012,41.29a1.75,1.75,0,0,0,3.5,0,7.156,7.156,0,0,1,1.687-4.75,10.5,10.5,0,0,0,2.313-6.749,10.5,10.5,0,0,0-2.313-6.749,7.156,7.156,0,0,1-1.687-4.75,7.146,7.146,0,0,1,1.687-4.746A10.487,10.487,0,0,0,7.488,6.8a1.75,1.75,0,0,0-3.5,0A7.145,7.145,0,0,1,2.3,11.547,10.49,10.49,0,0,0-.012,18.292,10.5,10.5,0,0,0,2.3,25.041a7.157,7.157,0,0,1,1.687,4.75A7.156,7.156,0,0,1,2.3,34.541,10.5,10.5,0,0,0-.012,41.29Z"/></g></svg>
